<svg width="17" height="16" viewBox="0 0 17 16" fill="none" xmlns="http://www.w3.org/2000/svg">
<g id="Icon 16px" clip-path="url(#clip0_1133_151)">
<path id="Shape" fill-rule="evenodd" clip-rule="evenodd" d="M8.64284 6.71429H10.0714V4.57143H12.2143V3.14286H10.0714V1H8.64284V3.14286H6.49998V4.57143H8.64284V6.71429ZM5.78571 13.1426C5 13.1426 4.36428 13.7855 4.36428 14.5712C4.36428 15.3569 5 15.9998 5.78571 15.9998C6.57143 15.9998 7.21428 15.3569 7.21428 14.5712C7.21428 13.7855 6.57143 13.1426 5.78571 13.1426ZM12.9286 13.1426C12.1429 13.1426 11.5071 13.7855 11.5071 14.5712C11.5071 15.3569 12.1429 15.9998 12.9286 15.9998C13.7143 15.9998 14.3571 15.3569 14.3571 14.5712C14.3571 13.7855 13.7143 13.1426 12.9286 13.1426ZM5.90714 10.8215L5.92857 10.7358L6.57143 9.57148H11.8929C12.4286 9.57148 12.9 9.27863 13.1429 8.83577L15.9 3.82863L14.6571 3.14291H14.65L13.8643 4.57148L11.8929 8.14291H6.87857L6.78571 7.95005L5.18571 4.57148L4.50714 3.14291L3.83571 1.71434H1.5V3.14291H2.92857L5.5 8.56434L4.53571 10.3143C4.42143 10.5143 4.35714 10.7501 4.35714 11.0001C4.35714 11.7858 5 12.4286 5.78571 12.4286H14.3571V11.0001H6.08571C5.99286 11.0001 5.90714 10.9215 5.90714 10.8215Z" fill="#FFC017"/>
</g>
<defs>
<clipPath id="clip0_1133_151">
<rect width="16" height="16" fill="white" transform="translate(0.5)"/>
</clipPath>
</defs>
</svg>
